<svg version="1.1" id="Layer_1" xmlns="http://www.w3.org/2000/svg" xmlns:xlink="http://www.w3.org/1999/xlink" x="0px" y="0px"
	 width="100%" viewBox="0 0 591 422" enable-background="new 0 0 591 422" xml:space="preserve">
<path fill="#f8f8f8" opacity="1.000000" stroke="none" 
	d="
M378.000000,423.000000 
	C252.000031,423.000000 126.500061,423.000000 1.000067,423.000000 
	C1.000045,282.333405 1.000045,141.666794 1.000022,1.000143 
	C197.999893,1.000095 394.999786,1.000095 591.999756,1.000048 
	C591.999878,141.666519 591.999878,282.333038 591.999939,422.999786 
	C520.833313,423.000000 449.666656,423.000000 378.000000,423.000000 
M144.707581,217.031067 
	C144.217072,217.839966 143.726578,218.648880 143.569443,219.723999 
	C143.569443,219.723999 143.896713,219.448135 143.896713,219.448135 
	C143.896713,219.448135 143.691788,219.073639 143.292877,218.532822 
	C142.898285,219.013748 142.503708,219.494675 141.935074,220.647507 
	C141.993134,221.102844 142.051208,221.558182 142.071182,222.563782 
	C142.363342,222.777634 142.655487,222.991486 143.030029,223.659363 
	C143.208069,223.954575 143.469055,224.090408 144.042877,224.554123 
	C144.351776,224.666122 144.660660,224.778137 145.689178,225.065765 
	C146.400665,224.738480 147.112137,224.411179 148.226044,224.839417 
	C150.841614,224.473465 153.457169,224.107498 156.039536,224.262726 
	C156.213074,224.281357 156.386597,224.300003 156.773560,224.925659 
	C157.225784,224.629471 157.678009,224.333282 159.051025,224.031509 
	C166.014725,224.059387 172.978424,224.087265 180.386490,224.870026 
	C202.586594,224.859619 224.786713,224.849228 247.913040,225.003174 
	C258.939911,224.951248 269.966766,224.899323 281.920502,225.001938 
	C301.998932,225.349472 322.076294,225.878082 342.156097,226.000427 
	C369.654877,226.167984 397.155518,226.017090 424.655334,226.041000 
	C426.440674,226.042557 428.292542,226.754303 429.995209,226.457474 
	C432.508362,226.019363 434.999390,225.150345 437.309784,224.061493 
	C437.905121,223.780930 438.145752,221.113144 437.946625,221.032669 
	C435.813751,220.170288 433.562012,219.055557 431.338715,219.046722 
	C405.218781,218.942947 379.098145,219.017334 352.655609,218.871643 
	C352.655609,218.871643 352.299469,218.954437 351.980103,218.459808 
	C351.641479,218.316132 351.302826,218.172455 350.049805,217.831543 
	C338.382080,217.898895 326.714325,217.966263 314.098541,217.994675 
	C286.738861,218.049026 259.379150,218.103363 231.095245,217.988815 
	C225.728256,218.042191 220.361267,218.095566 214.506363,218.010834 
	C214.337799,218.023346 214.169220,218.035843 213.674332,217.866760 
	C213.674332,217.866760 213.306229,217.929596 212.979950,217.415909 
	C212.554840,217.584641 212.129745,217.753372 211.340363,217.866974 
	C211.340363,217.866974 211.020767,218.050232 210.081772,218.000488 
	C205.051880,218.019669 200.021973,218.038834 194.658356,217.876465 
	C194.658356,217.876465 194.288071,217.961441 193.974976,217.469650 
	C193.640671,217.324829 193.306351,217.179993 192.057877,216.831543 
	C183.717865,216.901169 175.377838,216.970795 166.091324,217.005264 
	C160.101822,217.005219 154.111038,216.946945 148.124390,217.077911 
	C147.365707,217.094498 146.628723,218.102798 146.340286,218.436539 
	C146.133820,218.272827 145.927353,218.109116 145.944992,217.345306 
	C145.745956,217.268021 145.546906,217.190720 144.707581,217.031067 
M245.988647,159.976791 
	C245.988647,159.976791 245.921402,159.853195 245.004913,160.004440 
	C216.655823,160.015076 188.306732,160.025696 159.060272,159.838074 
	C155.377045,159.903046 151.693832,159.968018 147.430084,160.064575 
	C147.188492,160.363953 146.946915,160.663330 146.348953,160.874344 
	C146.348953,160.874344 146.014801,161.026520 145.435120,161.028717 
	C145.232285,161.343994 145.029434,161.659271 144.214264,162.230530 
	C143.510056,163.496002 142.805847,164.761475 141.987885,166.650696 
	C143.331070,167.050934 144.674255,167.451157 146.944260,167.983932 
	C156.643402,167.976181 166.342545,167.968430 176.954010,168.164459 
	C184.626678,168.097641 192.299332,168.030807 200.559326,167.934570 
	C200.805313,167.632950 201.051300,167.331345 201.666641,167.120392 
	C201.666641,167.120392 202.001602,166.940292 202.664886,166.993042 
	C203.107910,166.975754 203.550934,166.958481 204.336731,167.122452 
	C204.336731,167.122452 204.715927,167.041473 205.025696,167.533310 
	C205.359238,167.676880 205.692764,167.820465 206.940842,168.166748 
	C215.605911,168.107986 224.270996,168.049225 233.786392,168.039215 
	C235.192856,167.981339 236.599304,167.923477 238.552765,167.934830 
	C238.746429,167.634705 238.940094,167.334579 240.054169,167.017609 
	C292.816833,167.026199 345.579468,167.034851 398.342133,167.043045 
	C399.673645,167.043259 401.005219,167.044373 402.336700,167.034973 
	C411.312988,166.971588 420.295441,167.061829 429.260437,166.709412 
	C431.070343,166.638260 433.020355,165.107864 434.453918,163.767075 
	C434.846863,163.399536 433.601440,161.280273 433.010315,159.428604 
	C432.675415,159.077652 432.340515,158.726700 431.238251,157.874695 
	C420.503632,157.928146 409.768982,157.981598 398.442596,158.063477 
	C398.190247,158.364365 397.937897,158.665237 397.339783,158.869415 
	C397.339783,158.869415 397.026367,159.044525 396.082794,158.992569 
	C380.382294,159.045975 364.681763,159.099396 348.054749,159.018188 
	C333.358154,159.025345 318.661530,159.032501 303.051392,158.837311 
	C287.724792,158.886810 272.398163,158.936310 256.147705,158.925461 
	C253.094467,158.986069 250.041214,159.046661 246.420288,159.076721 
	C246.235229,159.399200 246.050171,159.721680 245.988647,159.976791 
M344.828369,206.909195 
	C345.214294,205.476212 345.876709,204.054611 345.936279,202.608185 
	C346.146942,197.491684 345.240143,192.499512 349.656281,187.989349 
	C351.306641,186.303833 350.511475,181.199585 349.385162,178.196533 
	C348.689331,176.341187 345.266846,175.508453 343.068420,174.216614 
	C342.668213,174.679749 342.268005,175.142883 341.867798,175.606033 
	C342.299957,177.427185 342.732086,179.248337 343.059174,181.992981 
	C343.040283,187.157043 342.904877,192.324295 343.045837,197.483978 
	C343.131531,200.620438 343.643860,203.745224 344.828369,206.909195 
M151.033371,190.017883 
	C152.236755,184.781265 153.440125,179.544647 154.643509,174.308029 
	C154.246841,174.020340 153.850189,173.732651 153.453537,173.444946 
	C151.749878,176.041199 150.046219,178.637451 148.287613,181.317413 
	C147.303726,178.985733 149.517639,174.700562 143.902924,175.192337 
	C144.295334,179.082214 144.979065,182.644836 144.940292,186.199570 
	C144.875687,192.124237 144.390854,198.046661 143.998871,203.964478 
	C143.787201,207.160324 145.264191,207.471390 148.143341,206.556870 
	C148.143341,201.133636 148.143341,195.882034 148.143341,190.506027 
	C148.918915,191.189972 149.401474,191.615540 149.956345,192.854721 
	C151.697723,197.818878 150.917892,203.752090 154.797043,207.894562 
	C155.470947,207.657333 156.144852,207.420120 156.818756,207.182907 
	C154.896790,201.745300 152.974823,196.307693 151.033371,190.017883 
M252.013809,197.795227 
	C252.008286,207.783463 252.008286,207.783463 255.510452,208.747177 
	C256.929321,198.256653 255.139557,180.914459 251.704361,178.728561 
	C249.952148,184.366455 248.266266,189.790909 246.364105,195.911285 
	C244.766571,191.080414 243.527115,186.902832 241.966751,182.848740 
	C241.426270,181.444458 240.089279,180.346771 239.116104,179.109039 
	C238.748581,180.572479 238.165268,182.019211 238.050537,183.502213 
	C237.528473,190.250427 237.069534,197.005692 236.759003,203.766281 
	C236.697357,205.108337 237.386581,206.484879 237.729507,207.845520 
	C238.481262,206.616364 239.738556,205.447052 239.892380,204.147141 
	C240.405792,199.808289 240.523926,195.422653 240.793503,191.054947 
	C241.114471,191.072830 241.435455,191.090714 241.756424,191.108597 
	C242.882202,195.795044 244.007980,200.481491 245.133743,205.167938 
	C245.762848,205.181274 246.391937,205.194626 247.021027,205.207962 
	C248.521881,201.097565 250.022751,196.987152 252.013794,191.534271 
	C252.013794,194.303619 252.013794,195.614807 252.013809,197.795227 
M386.115509,206.091614 
	C389.645782,208.498886 388.899292,204.693787 389.989502,203.478363 
	C390.900726,202.462509 392.011017,201.625214 393.769318,200.048889 
	C393.984314,203.420212 394.088165,205.048309 394.215240,207.040848 
	C395.617889,206.838715 396.767822,206.672989 397.559479,206.558914 
	C396.513733,197.202637 395.517853,188.292084 394.517029,179.337646 
	C393.059998,179.337646 391.680603,179.337646 390.862274,179.337646 
	C389.202362,188.248871 387.617981,196.754715 386.115509,206.091614 
M363.070526,202.244080 
	C362.374054,195.729752 361.659210,189.217316 360.988464,182.700333 
	C360.624664,179.165695 360.570587,179.104324 356.737732,179.576721 
	C355.120239,188.715302 353.527313,197.715164 351.952576,206.612213 
	C357.367554,207.927979 353.986755,199.017670 359.724213,201.439072 
	C359.907745,203.278763 360.084503,205.050888 360.256927,206.778992 
	C364.173859,207.522003 364.653412,206.030121 363.070526,202.244080 
M317.072479,181.571686 
	C316.435638,180.724564 315.798828,179.877441 315.161987,179.030304 
	C314.413483,179.777878 313.169342,180.424545 312.993347,181.288712 
	C311.283936,189.683777 309.753387,198.115280 308.107086,206.881149 
	C312.991638,207.381256 311.473236,203.390869 312.961853,199.751495 
	C315.224884,202.821991 316.884827,205.074265 318.544800,207.326538 
	C319.030548,207.085342 319.516296,206.844131 320.002045,206.602936 
	C319.020142,198.561691 318.038208,190.520462 317.072479,181.571686 
M160.990631,205.354080 
	C162.091019,201.174530 162.091019,201.174530 165.331161,201.537949 
	C165.959961,203.510422 166.547241,205.352646 167.134537,207.194870 
	C167.617432,207.055649 168.100327,206.916428 168.583237,206.777222 
	C168.713364,206.312302 168.988693,205.835587 168.952011,205.384247 
	C168.301865,197.385971 167.749817,189.374146 166.774979,181.414413 
	C166.641479,180.324295 164.362213,179.496979 163.070190,178.543411 
	C161.200256,187.691101 159.550919,195.809418 157.876892,203.922623 
	C157.272339,206.852585 157.365570,206.935440 160.990631,205.354080 
M261.121552,193.660049 
	C260.439178,196.683731 259.611176,199.685059 259.141632,202.741440 
	C258.936157,204.079071 259.463226,205.529236 259.657623,206.928314 
	C260.755798,205.812668 261.854156,204.697205 262.952057,203.581284 
	C263.919922,202.597473 264.887299,201.613159 266.731903,199.737061 
	C266.899353,202.647491 266.756256,203.704361 267.070068,204.601379 
	C267.374268,205.470932 268.147980,206.176208 268.715485,206.953644 
	C269.146820,206.211365 269.737701,205.514175 269.963806,204.713898 
	C270.182251,203.940994 270.103119,203.053848 270.019623,202.230576 
	C269.356628,195.694931 268.517151,189.173218 268.033417,182.624939 
	C267.768524,179.039001 266.077087,178.680588 263.494354,179.308105 
	C262.813538,184.148178 262.196167,188.537064 261.121552,193.660049 
M278.304230,194.394150 
	C280.730164,197.244034 284.163696,199.927567 279.871368,203.886597 
	C274.809631,201.264908 275.898651,184.421387 281.409668,180.094208 
	C277.144379,178.327866 274.445068,178.883514 274.082855,182.285645 
	C273.404205,188.660660 273.108154,195.130295 273.364258,201.532120 
	C273.536255,205.831863 276.564331,207.950485 280.963898,206.955505 
	C286.351624,205.737045 284.740936,201.232208 284.958649,197.691574 
	C285.251740,192.925476 281.721863,194.164871 278.304230,194.394150 
M403.948639,206.978165 
	C411.752655,207.775452 412.973541,206.449463 411.475494,193.927933 
	C409.653595,194.044022 407.833252,194.160004 406.012939,194.275986 
	C410.624207,197.592697 408.923187,200.737747 406.719635,204.993851 
	C405.580200,203.290131 404.179169,202.166336 404.257080,201.156723 
	C404.832214,193.707550 400.477325,185.154449 409.061920,178.934326 
	C406.293701,179.221527 402.734131,179.632690 402.200897,181.125107 
	C399.157166,189.644058 398.564972,198.341705 403.948639,206.978165 
M196.023010,198.547119 
	C196.202225,201.590927 196.381424,204.634720 196.560623,207.678528 
	C197.111816,207.666138 197.663010,207.653732 198.214218,207.641342 
	C199.074753,198.194443 199.935303,188.747559 200.795853,179.300674 
	C200.366547,179.103958 199.937256,178.907242 199.507950,178.710541 
	C198.514374,180.598495 197.520782,182.486435 196.614944,184.207642 
	C195.155914,182.353760 193.648270,180.438110 192.140640,178.522461 
	C191.729034,178.844543 191.317444,179.166626 190.905838,179.488708 
	C191.953659,182.371231 193.175568,185.204926 194.001541,188.149673 
	C194.871933,191.252731 195.364166,194.461853 196.023010,198.547119 
M306.742798,205.452606 
	C304.977997,204.616043 301.868866,204.004044 301.684998,202.903381 
	C300.954437,198.529861 301.129395,194.004028 300.983673,189.534134 
	C300.836700,185.025543 301.442352,180.949905 307.224274,179.825729 
	C303.303986,178.923050 298.904938,177.469727 298.331329,182.705032 
	C297.570129,189.652451 297.701263,196.750458 298.086212,203.748734 
	C298.284088,207.346497 303.649078,208.639313 306.742798,205.452606 
M419.082672,188.085266 
	C419.082672,186.155457 419.082672,184.225647 419.082672,182.554916 
	C420.949280,182.463074 422.341705,182.394562 423.734100,182.326050 
	C423.803009,181.783295 423.871887,181.240540 423.940765,180.697769 
	C421.492157,180.021820 419.043549,179.345871 416.007660,178.507797 
	C416.007660,187.432419 415.930450,195.412399 416.077454,203.388275 
	C416.104553,204.859406 416.730377,207.291412 417.618927,207.571808 
	C419.451721,208.150223 421.648102,207.576614 423.694885,207.476959 
	C423.705292,206.960983 423.715698,206.445023 423.726105,205.929062 
	C422.154663,205.389572 420.583191,204.850067 418.672607,204.194153 
	C420.404785,199.806778 415.713898,193.978012 423.032257,191.411743 
	C421.433380,190.387970 420.275940,189.646835 419.082672,188.085266 
M326.993530,188.525467 
	C326.991791,186.528473 327.233398,184.489578 326.899292,182.549835 
	C326.690552,181.338058 325.613708,180.275848 324.926453,179.146545 
	C324.287476,180.317719 323.127655,181.474884 323.095734,182.662384 
	C322.915863,189.350784 322.915161,196.048645 323.071198,202.738174 
	C323.109833,204.394501 323.599274,207.168060 324.503357,207.452652 
	C326.702881,208.145065 329.267395,207.678116 331.684875,207.678116 
	C331.291199,205.940842 330.807373,205.102890 330.366882,205.125076 
	C324.763184,205.407333 325.988800,201.378525 326.096497,198.268173 
	C326.198181,195.331650 326.679535,192.408279 326.993530,188.525467 
M171.595093,181.000854 
	C174.113342,189.502472 173.179520,197.939270 172.521225,207.044861 
	C173.952652,207.108337 176.812805,207.235184 180.093109,207.380661 
	C174.538971,197.929916 175.571396,188.715118 176.938171,178.726318 
	C175.422028,179.129807 173.286118,179.698227 171.595093,181.000854 
M291.986053,187.645416 
	C292.356628,184.950165 292.727173,182.254898 293.103027,179.521210 
	C291.495758,179.521210 289.248352,179.521210 287.260681,179.521210 
	C290.201691,188.819305 289.198608,197.636810 288.197632,206.884933 
	C289.759003,206.884933 292.288818,206.884933 295.262573,206.884933 
	C290.835968,200.637314 292.346039,194.470551 291.986053,187.645416 
M370.919342,206.589218 
	C375.083221,202.829834 373.975708,197.433655 370.637787,191.084473 
	C369.506866,188.933273 369.051849,186.162338 369.178894,183.720947 
	C369.246704,182.417679 371.213654,181.213226 372.684998,179.557327 
	C368.098877,178.448242 365.193634,178.918518 366.042908,183.867172 
	C366.659180,187.457932 367.522095,191.113541 368.991516,194.422028 
	C370.618591,198.085449 371.065247,201.366226 368.613281,204.668961 
	C367.894806,205.636673 366.883759,206.387146 366.006836,207.237183 
	C367.446411,207.196243 368.885986,207.155304 370.919342,206.589218 
M221.925293,197.020981 
	C222.524323,201.216156 221.997696,204.823624 216.655334,205.785156 
	C220.311813,208.673706 223.470596,207.727997 224.684494,203.728043 
	C225.963562,199.513321 224.741257,195.669189 222.515961,192.023636 
	C218.868073,186.047516 218.986725,184.955612 223.498505,180.200928 
	C218.673172,177.921921 216.599380,178.756897 217.235489,183.649277 
	C217.796860,187.966782 220.117279,192.055588 221.925293,197.020981 
M377.387207,190.819626 
	C382.908539,198.663132 382.569153,202.805969 376.158508,205.818848 
	C378.779358,208.632568 381.302704,208.318085 383.045898,204.870331 
	C385.187286,200.635010 384.235657,196.574203 381.927155,192.782913 
	C379.247345,188.381805 376.390656,184.108871 384.055298,179.608948 
	C380.844025,179.250717 379.176880,179.064743 376.329468,178.747086 
	C376.595123,182.899521 376.824890,186.490417 377.387207,190.819626 
M185.648590,206.884460 
	C186.420807,206.357544 187.836349,205.851700 187.854416,205.300079 
	C187.934601,202.851364 187.490555,200.390900 187.463013,197.932144 
	C187.394989,191.862030 184.981689,185.542404 189.413345,179.684296 
	C186.149612,179.684296 183.083786,179.684296 180.017975,179.684296 
	C180.014908,179.982407 180.011841,180.280518 180.008774,180.578629 
	C181.324432,180.920639 182.640091,181.262634 183.489700,181.483490 
	C184.039993,190.041656 184.559219,198.116959 185.648590,206.884460 
M431.987305,206.478943 
	C436.987854,201.399521 434.187500,196.265198 431.781738,191.407303 
	C429.802948,187.411606 428.383392,183.887680 432.882507,180.710297 
	C433.067841,180.579422 432.820892,179.836487 432.774017,179.365265 
	C428.495667,178.062958 426.581818,180.046570 427.076050,183.917191 
	C427.491669,187.172012 428.362061,190.575180 429.911255,193.436081 
	C433.177307,199.467392 432.697266,202.719452 427.203979,207.350830 
	C428.615570,207.237106 430.027130,207.123383 431.987305,206.478943 
z"/>
<path fill="#A3A48B" opacity="1.000000" stroke="none" 
	d="
M142.101624,166.026932 
	C142.805847,164.761475 143.510056,163.496002 144.809784,162.061447 
	C145.608490,161.603760 145.811646,161.315140 146.014801,161.026520 
	C146.014801,161.026520 146.348953,160.874344 146.870346,160.954346 
	C147.598038,160.700577 147.804321,160.366791 148.010605,160.032990 
	C151.693832,159.968018 155.377045,159.903046 159.467255,160.353638 
	C161.603256,161.207214 163.334106,161.848404 165.060974,161.837814 
	C192.048218,161.672134 219.034943,161.422287 246.389526,161.337112 
	C249.326065,161.543091 251.925598,161.851471 254.448090,161.538605 
	C255.413269,161.418900 256.202271,159.878708 257.071564,158.985809 
	C272.398163,158.936310 287.724792,158.886810 303.654724,159.377380 
	C305.355438,160.182541 306.454193,160.683258 307.550018,160.676941 
	C321.418182,160.596863 335.285919,160.443787 349.604858,160.406616 
	C364.203735,160.452774 378.351898,160.440460 392.498657,160.293930 
	C394.012024,160.278259 395.517334,159.479843 397.026367,159.044525 
	C397.026367,159.044525 397.339783,158.869415 397.876343,159.004791 
	C398.620056,158.771805 398.827209,158.403427 399.034363,158.035049 
	C409.768982,157.981598 420.503632,157.928146 431.382294,158.540817 
	C431.589111,159.520416 431.651917,159.833893 431.822540,160.551773 
	C431.831787,165.823029 428.024323,164.078384 425.726776,164.096710 
	C363.858307,164.590103 301.988861,164.961975 240.119659,165.367706 
	C238.128372,165.380768 236.108841,165.373917 234.166351,165.727432 
	C233.636505,165.823853 233.339767,167.201050 232.936066,167.990448 
	C224.270996,168.049225 215.605911,168.107986 206.499527,167.705032 
	C205.610779,167.176041 205.163361,167.108749 204.715927,167.041473 
	C204.715927,167.041473 204.336731,167.122452 204.078247,166.749023 
	C203.213699,166.563828 202.607651,166.752060 202.001602,166.940292 
	C202.001602,166.940292 201.666641,167.120392 201.126984,167.014786 
	C200.382217,167.260788 200.177109,167.612381 199.972000,167.963989 
	C192.299332,168.030807 184.626678,168.097641 176.551788,167.645721 
	C175.256577,166.801056 174.362259,166.189224 173.470779,166.193329 
	C164.351990,166.235336 155.233658,166.377380 145.724457,166.371735 
	C144.256363,166.176987 143.178986,166.101959 142.101624,166.026932 
z"/>
<path fill="#A1A38A" opacity="1.000000" stroke="none" 
	d="
M167.037827,217.040436 
	C175.377838,216.970795 183.717865,216.901169 192.496460,217.296692 
	C193.386063,217.828384 193.837067,217.894913 194.288071,217.961441 
	C194.288071,217.961441 194.658356,217.876465 195.099014,218.294556 
	C200.700043,218.491837 205.860397,218.271042 211.020767,218.050232 
	C211.020767,218.050232 211.340363,217.866974 211.922318,218.053833 
	C212.771606,218.136978 213.038925,218.033279 213.306229,217.929596 
	C213.306229,217.929596 213.674332,217.866760 213.824905,218.241791 
	C214.301865,218.791763 214.628265,218.966690 215.346771,219.266815 
	C221.160126,219.319305 226.581329,219.246597 232.422943,219.225220 
	C259.020752,219.489822 285.198059,219.728806 311.375885,219.835190 
	C312.597015,219.840164 313.822906,218.661194 315.046600,218.033630 
	C326.714325,217.966263 338.382080,217.898895 350.491882,218.298401 
	C351.389099,218.828323 351.844299,218.891373 352.299469,218.954437 
	C352.299469,218.954437 352.655609,218.871643 353.012268,219.299744 
	C355.494598,220.003586 357.618805,220.506424 359.746185,220.520172 
	C382.732544,220.668839 405.719452,220.722717 428.705841,220.863052 
	C430.817139,220.875931 432.925873,221.306519 435.035767,221.543137 
	C435.054657,222.274857 435.073517,223.006592 435.092407,223.738312 
	C432.532745,224.056961 429.971436,224.665329 427.413696,224.650558 
	C392.102509,224.446930 356.791992,224.128967 321.480896,223.903885 
	C307.992401,223.817917 294.502838,223.896591 280.546631,223.845337 
	C269.011658,223.797882 257.943787,223.805344 246.425323,223.721161 
	C224.018997,223.486313 202.063309,223.343094 179.639862,223.098358 
	C171.472321,223.245087 163.772522,223.493317 156.072739,223.741547 
	C153.457169,224.107498 150.841614,224.473465 147.769928,224.025497 
	C146.782837,221.456192 146.251862,219.700790 145.720886,217.945404 
	C145.927353,218.109116 146.133820,218.272827 146.657349,218.591278 
	C152.394958,218.784470 157.818909,218.937851 163.233536,218.777100 
	C164.517700,218.738983 165.770569,217.647430 167.037827,217.040436 
z"/>
<path fill="#E9EAE4" opacity="1.000000" stroke="none" 
	d="
M233.361221,168.014832 
	C233.339767,167.201050 233.636505,165.823853 234.166351,165.727432 
	C236.108841,165.373917 238.128372,165.380768 240.119659,165.367706 
	C301.988861,164.961975 363.858307,164.590103 425.726776,164.096710 
	C428.024323,164.078384 431.831787,165.823029 432.170227,160.496933 
	C432.642700,160.013397 432.875275,159.989120 433.107849,159.964859 
	C433.601440,161.280273 434.846863,163.399536 434.453918,163.767075 
	C433.020355,165.107864 431.070343,166.638260 429.260437,166.709412 
	C420.295441,167.061829 411.312988,166.971588 402.336700,167.034973 
	C401.005219,167.044373 399.673645,167.043259 398.342133,167.043045 
	C345.579468,167.034851 292.816833,167.026199 239.419586,167.183258 
	C238.504044,167.489151 238.244293,167.661392 238.005768,167.865601 
	C236.599304,167.923477 235.192856,167.981339 233.361221,168.014832 
z"/>
<path fill="#E4E4DD" opacity="1.000000" stroke="none" 
	d="
M281.013763,223.900238 
	C294.502838,223.896591 307.992401,223.817917 321.480896,223.903885 
	C356.791992,224.128967 392.102509,224.446930 427.413696,224.650558 
	C429.971436,224.665329 432.532745,224.056961 435.092407,223.738312 
	C435.073517,223.006592 435.054657,222.274857 435.035767,221.543137 
	C432.925873,221.306519 430.817139,220.875931 428.705841,220.863052 
	C405.719452,220.722717 382.732544,220.668839 359.746185,220.520172 
	C357.618805,220.506424 355.494598,220.003586 353.173279,219.386292 
	C379.098145,219.017334 405.218781,218.942947 431.338715,219.046722 
	C433.562012,219.055557 435.813751,220.170288 437.946625,221.032669 
	C438.145752,221.113144 437.905121,223.780930 437.309784,224.061493 
	C434.999390,225.150345 432.508362,226.019363 429.995209,226.457474 
	C428.292542,226.754303 426.440674,226.042557 424.655334,226.041000 
	C397.155518,226.017090 369.654877,226.167984 342.156097,226.000427 
	C322.076294,225.878082 301.998932,225.349472 281.461578,224.687866 
	C281.002655,224.373795 281.013763,223.900238 281.013763,223.900238 
z"/>
<path fill="#7D9799" opacity="1.000000" stroke="none" 
	d="
M252.013794,197.360611 
	C252.013794,195.614807 252.013794,194.303619 252.013794,191.534271 
	C250.022751,196.987152 248.521881,201.097565 247.021027,205.207962 
	C246.391937,205.194626 245.762848,205.181274 245.133743,205.167938 
	C244.007980,200.481491 242.882202,195.795044 241.756424,191.108597 
	C241.435455,191.090714 241.114471,191.072830 240.793503,191.054947 
	C240.523926,195.422653 240.405792,199.808289 239.892380,204.147141 
	C239.738556,205.447052 238.481262,206.616364 237.729523,207.845520 
	C237.386581,206.484879 236.697357,205.108337 236.759003,203.766281 
	C237.069534,197.005692 237.528473,190.250427 238.050537,183.502213 
	C238.165268,182.019211 238.748581,180.572479 239.116089,179.109039 
	C240.089279,180.346771 241.426270,181.444458 241.966751,182.848740 
	C243.527115,186.902832 244.766571,191.080414 246.364105,195.911285 
	C248.266266,189.790909 249.952148,184.366455 251.704361,178.728561 
	C255.139557,180.914459 256.929321,198.256653 255.510452,208.747177 
	C252.008286,207.783463 252.008286,207.783463 252.013794,197.360611 
z"/>
<path fill="#7E9799" opacity="1.000000" stroke="none" 
	d="
M386.074524,205.676086 
	C387.617981,196.754715 389.202362,188.248871 390.862274,179.337646 
	C391.680603,179.337646 393.059998,179.337646 394.517029,179.337646 
	C395.517853,188.292084 396.513733,197.202637 397.559479,206.558914 
	C396.767822,206.672989 395.617889,206.838715 394.215240,207.040848 
	C394.088165,205.048309 393.984314,203.420212 393.769318,200.048889 
	C392.011017,201.625214 390.900726,202.462509 389.989502,203.478363 
	C388.899292,204.693787 389.645782,208.498886 386.074524,205.676086 
z"/>
<path fill="#7F989A" opacity="1.000000" stroke="none" 
	d="
M363.081299,202.678070 
	C364.653412,206.030121 364.173859,207.522003 360.256927,206.778992 
	C360.084503,205.050888 359.907745,203.278763 359.724213,201.439072 
	C353.986755,199.017670 357.367554,207.927979 351.952576,206.612213 
	C353.527313,197.715164 355.120239,188.715302 356.737732,179.576721 
	C360.570587,179.104324 360.624664,179.165695 360.988464,182.700333 
	C361.659210,189.217316 362.374054,195.729752 363.081299,202.678070 
z"/>
<path fill="#829B9D" opacity="1.000000" stroke="none" 
	d="
M317.064392,182.025452 
	C318.038208,190.520462 319.020142,198.561691 320.002045,206.602936 
	C319.516296,206.844131 319.030548,207.085342 318.544800,207.326538 
	C316.884827,205.074265 315.224884,202.821991 312.961853,199.751495 
	C311.473236,203.390869 312.991638,207.381256 308.107086,206.881149 
	C309.753387,198.115280 311.283936,189.683777 312.993347,181.288712 
	C313.169342,180.424545 314.413483,179.777878 315.161987,179.030304 
	C315.798828,179.877441 316.435638,180.724564 317.064392,182.025452 
z"/>
<path fill="#7E989A" opacity="1.000000" stroke="none" 
	d="
M160.949249,205.751526 
	C157.365570,206.935440 157.272339,206.852585 157.876892,203.922623 
	C159.550919,195.809418 161.200256,187.691101 163.070190,178.543411 
	C164.362213,179.496979 166.641479,180.324295 166.774979,181.414413 
	C167.749817,189.374146 168.301865,197.385971 168.952011,205.384247 
	C168.988693,205.835587 168.713364,206.312302 168.583237,206.777222 
	C168.100327,206.916428 167.617432,207.055649 167.134537,207.194870 
	C166.547241,205.352646 165.959961,203.510422 165.331161,201.537949 
	C162.091019,201.174530 162.091019,201.174530 160.949249,205.751526 
z"/>
<path fill="#7F989A" opacity="1.000000" stroke="none" 
	d="
M261.350189,193.292999 
	C262.196167,188.537064 262.813538,184.148178 263.494354,179.308105 
	C266.077087,178.680588 267.768524,179.039001 268.033417,182.624939 
	C268.517151,189.173218 269.356628,195.694931 270.019623,202.230576 
	C270.103119,203.053848 270.182251,203.940994 269.963806,204.713898 
	C269.737701,205.514175 269.146820,206.211365 268.715485,206.953644 
	C268.147980,206.176208 267.374268,205.470932 267.070068,204.601379 
	C266.756256,203.704361 266.899353,202.647491 266.731903,199.737061 
	C264.887299,201.613159 263.919922,202.597473 262.952057,203.581284 
	C261.854156,204.697205 260.755798,205.812668 259.657623,206.928314 
	C259.463226,205.529236 258.936157,204.079071 259.141632,202.741440 
	C259.611176,199.685059 260.439178,196.683731 261.350189,193.292999 
z"/>
<path fill="#7E9799" opacity="1.000000" stroke="none" 
	d="
M278.684814,194.239441 
	C281.721863,194.164871 285.251740,192.925476 284.958649,197.691574 
	C284.740936,201.232208 286.351624,205.737045 280.963898,206.955505 
	C276.564331,207.950485 273.536255,205.831863 273.364258,201.532120 
	C273.108154,195.130295 273.404205,188.660660 274.082855,182.285645 
	C274.445068,178.883514 277.144379,178.327866 281.409668,180.094208 
	C275.898651,184.421387 274.809631,201.264908 279.872620,203.886383 
	C284.163696,199.927567 280.730164,197.244034 278.684814,194.239441 
z"/>
<path fill="#7F989A" opacity="1.000000" stroke="none" 
	d="
M403.543579,206.841827 
	C398.564972,198.341705 399.157166,189.644058 402.200897,181.125107 
	C402.734131,179.632690 406.293701,179.221527 409.061920,178.934326 
	C400.477325,185.154449 404.832214,193.707550 404.257080,201.156723 
	C404.179169,202.166336 405.580200,203.290131 406.719635,204.993851 
	C408.923187,200.737747 410.624207,197.592697 406.012939,194.275986 
	C407.833252,194.160004 409.653595,194.044022 411.475494,193.927933 
	C412.973541,206.449463 411.752655,207.775452 403.543579,206.841827 
z"/>
<path fill="#7D9799" opacity="1.000000" stroke="none" 
	d="
M149.884033,192.041107 
	C149.401474,191.615540 148.918915,191.189972 148.143341,190.506027 
	C148.143341,195.882034 148.143341,201.133636 148.143341,206.556870 
	C145.264191,207.471390 143.787201,207.160324 143.998871,203.964478 
	C144.390854,198.046661 144.875687,192.124237 144.940292,186.199570 
	C144.979065,182.644836 144.295334,179.082214 143.902924,175.192337 
	C149.517639,174.700562 147.303726,178.985733 148.287613,181.317413 
	C150.046219,178.637451 151.749878,176.041199 153.453537,173.444946 
	C153.850189,173.732651 154.246841,174.020340 154.643509,174.308029 
	C153.440125,179.544647 152.236755,184.781265 150.866943,190.657227 
	C150.428345,191.544739 150.156189,191.792923 149.884033,192.041107 
z"/>
<path fill="#F6F6F4" opacity="1.000000" stroke="none" 
	d="
M314.572571,218.014145 
	C313.822906,218.661194 312.597015,219.840164 311.375885,219.835190 
	C285.198059,219.728806 259.020752,219.489822 232.431213,218.971191 
	C232.019226,218.496445 232.019348,218.327072 232.019455,218.157715 
	C259.379150,218.103363 286.738861,218.049026 314.572571,218.014145 
z"/>
<path fill="#F6F6F4" opacity="1.000000" stroke="none" 
	d="
M246.021790,161.191833 
	C219.034943,161.422287 192.048218,161.672134 165.060974,161.837814 
	C163.334106,161.848404 161.603256,161.207214 159.915955,160.452759 
	C188.306732,160.025696 216.655823,160.015076 245.498322,160.262726 
	C246.001755,160.744629 246.011765,160.968231 246.021790,161.191833 
z"/>
<path fill="#7D9799" opacity="1.000000" stroke="none" 
	d="
M343.164246,181.069504 
	C342.732086,179.248337 342.299957,177.427185 341.867798,175.606033 
	C342.268005,175.142883 342.668213,174.679749 343.068420,174.216614 
	C345.266846,175.508453 348.689331,176.341187 349.385162,178.196533 
	C350.511475,181.199585 351.306641,186.303833 349.656281,187.989349 
	C345.240143,192.499512 346.146942,197.491684 345.936279,202.608185 
	C345.876709,204.054611 345.214294,205.476212 344.397156,206.431580 
	C343.698730,197.659149 343.431488,189.364319 343.164246,181.069504 
z"/>
<path fill="#F6F6F4" opacity="1.000000" stroke="none" 
	d="
M180.107620,223.199875 
	C202.063309,223.343094 224.018997,223.486313 246.440598,223.892120 
	C246.944534,224.381424 246.971313,224.609467 246.986816,224.838837 
	C224.786713,224.849228 202.586594,224.859619 180.237244,224.269470 
	C180.087982,223.668900 180.107620,223.199875 180.107620,223.199875 
z"/>
<path fill="#80999B" opacity="1.000000" stroke="none" 
	d="
M196.022308,198.085876 
	C195.364166,194.461853 194.871933,191.252731 194.001541,188.149673 
	C193.175568,185.204926 191.953659,182.371231 190.905838,179.488708 
	C191.317444,179.166626 191.729034,178.844543 192.140640,178.522461 
	C193.648270,180.438110 195.155914,182.353760 196.614944,184.207642 
	C197.520782,182.486435 198.514374,180.598495 199.507950,178.710541 
	C199.937256,178.907242 200.366547,179.103958 200.795853,179.300674 
	C199.935303,188.747559 199.074753,198.194443 198.214218,207.641342 
	C197.663010,207.653732 197.111816,207.666138 196.560623,207.678528 
	C196.381424,204.634720 196.202225,201.590927 196.022308,198.085876 
z"/>
<path fill="#7E989A" opacity="1.000000" stroke="none" 
	d="
M306.799835,205.850708 
	C303.649078,208.639313 298.284088,207.346497 298.086212,203.748734 
	C297.701263,196.750458 297.570129,189.652451 298.331329,182.705032 
	C298.904938,177.469727 303.303986,178.923050 307.224274,179.825729 
	C301.442352,180.949905 300.836700,185.025543 300.983673,189.534134 
	C301.129395,194.004028 300.954437,198.529861 301.684998,202.903381 
	C301.868866,204.004044 304.977997,204.616043 306.799835,205.850708 
z"/>
<path fill="#7A9597" opacity="1.000000" stroke="none" 
	d="
M419.100586,188.495483 
	C420.275940,189.646835 421.433380,190.387970 423.032257,191.411743 
	C415.713898,193.978012 420.404785,199.806778 418.672607,204.194153 
	C420.583191,204.850067 422.154663,205.389572 423.726105,205.929062 
	C423.715698,206.445023 423.705292,206.960983 423.694885,207.476959 
	C421.648102,207.576614 419.451721,208.150223 417.618927,207.571808 
	C416.730377,207.291412 416.104553,204.859406 416.077454,203.388275 
	C415.930450,195.412399 416.007660,187.432419 416.007660,178.507797 
	C419.043549,179.345871 421.492157,180.021820 423.940765,180.697769 
	C423.871887,181.240540 423.803009,181.783295 423.734100,182.326050 
	C422.341705,182.394562 420.949280,182.463074 419.082672,182.554916 
	C419.082672,184.225647 419.082672,186.155457 419.100586,188.495483 
z"/>
<path fill="#7A9597" opacity="1.000000" stroke="none" 
	d="
M326.993713,189.002289 
	C326.679535,192.408279 326.198181,195.331650 326.096497,198.268173 
	C325.988800,201.378525 324.763184,205.407333 330.366882,205.125076 
	C330.807373,205.102890 331.291199,205.940842 331.684875,207.678116 
	C329.267395,207.678116 326.702881,208.145065 324.503357,207.452652 
	C323.599274,207.168060 323.109833,204.394501 323.071198,202.738174 
	C322.915161,196.048645 322.915863,189.350784 323.095734,182.662384 
	C323.127655,181.474884 324.287476,180.317719 324.926453,179.146545 
	C325.613708,180.275848 326.690552,181.338058 326.899292,182.549835 
	C327.233398,184.489578 326.991791,186.528473 326.993713,189.002289 
z"/>
<path fill="#7E989A" opacity="1.000000" stroke="none" 
	d="
M171.372650,180.633759 
	C173.286118,179.698227 175.422028,179.129807 176.938171,178.726318 
	C175.571396,188.715118 174.538971,197.929916 180.093109,207.380661 
	C176.812805,207.235184 173.952652,207.108337 172.521225,207.044861 
	C173.179520,197.939270 174.113342,189.502472 171.372650,180.633759 
z"/>
<path fill="#7D9799" opacity="1.000000" stroke="none" 
	d="
M291.986084,188.126968 
	C292.346039,194.470551 290.835968,200.637314 295.262573,206.884933 
	C292.288818,206.884933 289.759003,206.884933 288.197632,206.884933 
	C289.198608,197.636810 290.201691,188.819305 287.260681,179.521210 
	C289.248352,179.521210 291.495758,179.521210 293.103027,179.521210 
	C292.727173,182.254898 292.356628,184.950165 291.986084,188.126968 
z"/>
<path fill="#829B9D" opacity="1.000000" stroke="none" 
	d="
M370.622437,206.851791 
	C368.885986,207.155304 367.446411,207.196243 366.006836,207.237183 
	C366.883759,206.387146 367.894806,205.636673 368.613281,204.668961 
	C371.065247,201.366226 370.618591,198.085449 368.991516,194.422028 
	C367.522095,191.113541 366.659180,187.457932 366.042908,183.867172 
	C365.193634,178.918518 368.098877,178.448242 372.684998,179.557327 
	C371.213654,181.213226 369.246704,182.417679 369.178894,183.720947 
	C369.051849,186.162338 369.506866,188.933273 370.637787,191.084473 
	C373.975708,197.433655 375.083221,202.829834 370.622437,206.851791 
z"/>
<path fill="#829B9D" opacity="1.000000" stroke="none" 
	d="
M221.793137,196.633179 
	C220.117279,192.055588 217.796860,187.966782 217.235489,183.649277 
	C216.599380,178.756897 218.673172,177.921921 223.498505,180.200928 
	C218.986725,184.955612 218.868073,186.047516 222.515961,192.023636 
	C224.741257,195.669189 225.963562,199.513321 224.684494,203.728043 
	C223.470596,207.727997 220.311813,208.673706 216.655334,205.785156 
	C221.997696,204.823624 222.524323,201.216156 221.793137,196.633179 
z"/>
<path fill="#829B9D" opacity="1.000000" stroke="none" 
	d="
M377.220917,190.450470 
	C376.824890,186.490417 376.595123,182.899521 376.329468,178.747086 
	C379.176880,179.064743 380.844025,179.250717 384.055298,179.608948 
	C376.390656,184.108871 379.247345,188.381805 381.927155,192.782913 
	C384.235657,196.574203 385.187286,200.635010 383.045898,204.870331 
	C381.302704,208.318085 378.779358,208.632568 376.158508,205.818848 
	C382.569153,202.805969 382.908539,198.663132 377.220917,190.450470 
z"/>
<path fill="#7D9799" opacity="1.000000" stroke="none" 
	d="
M185.363525,206.538361 
	C184.559219,198.116959 184.039993,190.041656 183.489700,181.483490 
	C182.640091,181.262634 181.324432,180.920639 180.008774,180.578629 
	C180.011841,180.280518 180.014908,179.982407 180.017975,179.684296 
	C183.083786,179.684296 186.149612,179.684296 189.413345,179.684296 
	C184.981689,185.542404 187.394989,191.862030 187.463013,197.932144 
	C187.490555,200.390900 187.934601,202.851364 187.854416,205.300079 
	C187.836349,205.851700 186.420807,206.357544 185.363525,206.538361 
z"/>
<path fill="#829B9D" opacity="1.000000" stroke="none" 
	d="
M431.713013,206.744308 
	C430.027130,207.123383 428.615570,207.237106 427.203979,207.350830 
	C432.697266,202.719452 433.177307,199.467392 429.911255,193.436081 
	C428.362061,190.575180 427.491669,187.172012 427.076050,183.917191 
	C426.581818,180.046570 428.495667,178.062958 432.774017,179.365265 
	C432.820892,179.836487 433.067841,180.579422 432.882507,180.710297 
	C428.383392,183.887680 429.802948,187.411606 431.781738,191.407303 
	C434.187500,196.265198 436.987854,201.399521 431.713013,206.744308 
z"/>
<path fill="#FCFCFB" opacity="1.000000" stroke="none" 
	d="
M146.115189,166.491470 
	C155.233658,166.377380 164.351990,166.235336 173.470779,166.193329 
	C174.362259,166.189224 175.256577,166.801056 176.095627,167.543823 
	C166.342545,167.968430 156.643402,167.976181 146.495544,167.690704 
	C146.092590,167.097198 146.115372,166.795212 146.115189,166.491470 
z"/>
<path fill="#E9EAE4" opacity="1.000000" stroke="none" 
	d="
M396.554565,159.018555 
	C395.517334,159.479843 394.012024,160.278259 392.498657,160.293930 
	C378.351898,160.440460 364.203735,160.452774 349.555756,160.117737 
	C349.030792,159.538620 349.006042,159.345718 348.981262,159.152802 
	C364.681763,159.099396 380.382294,159.045975 396.554565,159.018555 
z"/>
<path fill="#FAFAF8" opacity="1.000000" stroke="none" 
	d="
M348.518005,159.085495 
	C349.006042,159.345718 349.030792,159.538620 349.104614,160.020416 
	C335.285919,160.443787 321.418182,160.596863 307.550018,160.676941 
	C306.454193,160.683258 305.355438,160.182541 304.111481,159.478546 
	C318.661530,159.032501 333.358154,159.025345 348.518005,159.085495 
z"/>
<path fill="#89A0A2" opacity="1.000000" stroke="none" 
	d="
M149.920197,192.447906 
	C150.156189,191.792923 150.428345,191.544739 150.876678,191.083313 
	C152.974823,196.307693 154.896790,201.745300 156.818756,207.182907 
	C156.144852,207.420120 155.470947,207.657333 154.797043,207.894562 
	C150.917892,203.752090 151.697723,197.818878 149.920197,192.447906 
z"/>
<path fill="#FCFCFB" opacity="1.000000" stroke="none" 
	d="
M166.564575,217.022858 
	C165.770569,217.647430 164.517700,218.738983 163.233536,218.777100 
	C157.818909,218.937851 152.394958,218.784470 146.428040,218.698822 
	C146.628723,218.102798 147.365707,217.094498 148.124390,217.077911 
	C154.111038,216.946945 160.101822,217.005219 166.564575,217.022858 
z"/>
<path fill="#E9EAE4" opacity="1.000000" stroke="none" 
	d="
M247.449921,224.921005 
	C246.971313,224.609467 246.944534,224.381424 246.891235,223.983734 
	C257.943787,223.805344 269.011658,223.797882 280.546631,223.845337 
	C281.013763,223.900238 281.002655,224.373795 280.998138,224.610596 
	C269.966766,224.899323 258.939911,224.951248 247.449921,224.921005 
z"/>
<path fill="#E4E4DD" opacity="1.000000" stroke="none" 
	d="
M231.557343,218.073273 
	C232.019348,218.327072 232.019226,218.496445 232.010834,218.919861 
	C226.581329,219.246597 221.160126,219.319305 215.358795,219.018402 
	C214.978683,218.644775 214.994278,218.148941 214.994278,218.148956 
	C220.361267,218.095566 225.728256,218.042191 231.557343,218.073273 
z"/>
<path fill="#D8D8CE" opacity="1.000000" stroke="none" 
	d="
M246.389526,161.337112 
	C246.011765,160.968231 246.001755,160.744629 245.956573,160.187103 
	C245.921402,159.853195 245.988647,159.976791 246.086334,159.815659 
	C246.521484,159.573959 246.789474,159.391541 246.987976,159.107269 
	C250.041214,159.046661 253.094467,158.986069 256.609619,158.955627 
	C256.202271,159.878708 255.413269,161.418900 254.448090,161.538605 
	C251.925598,161.851471 249.326065,161.543091 246.389526,161.337112 
z"/>
<path fill="#B8C6C7" opacity="1.000000" stroke="none" 
	d="
M343.111694,181.531250 
	C343.431488,189.364319 343.698730,197.659149 343.965240,206.414612 
	C343.643860,203.745224 343.131531,200.620438 343.045837,197.483978 
	C342.904877,192.324295 343.040283,187.157043 343.111694,181.531250 
z"/>
<path fill="#D6D7CC" opacity="1.000000" stroke="none" 
	d="
M179.639862,223.098358 
	C180.107620,223.199875 180.087982,223.668900 180.015045,223.892029 
	C172.978424,224.087265 166.014725,224.059387 158.195831,224.092041 
	C157.080475,224.207932 156.820312,224.263290 156.560135,224.318649 
	C156.386597,224.300003 156.213074,224.281357 156.056137,224.002136 
	C163.772522,223.493317 171.472321,223.245087 179.639862,223.098358 
z"/>
<path fill="#D6D7CC" opacity="1.000000" stroke="none" 
	d="
M145.832947,217.645355 
	C146.251862,219.700790 146.782837,221.456192 147.568726,223.647736 
	C147.112137,224.411179 146.400665,224.738480 145.155045,224.812805 
	C144.274277,224.522552 144.004959,224.358231 143.812988,224.066879 
	C143.469055,224.090408 143.208069,223.954575 142.806915,223.259003 
	C142.548447,222.507797 142.390274,222.226105 142.109283,222.013519 
	C142.051208,221.558182 141.993134,221.102844 142.443893,220.131866 
	C143.199066,219.435349 143.445435,219.254486 143.691788,219.073639 
	C143.691788,219.073639 143.896713,219.448135 143.896713,219.448135 
	C143.896713,219.448135 143.569443,219.723999 143.959213,219.028793 
	C144.681931,217.926865 145.014877,217.520142 145.347839,217.113419 
	C145.546906,217.190720 145.745956,217.268021 145.832947,217.645355 
z"/>
<path fill="#E9EAE4" opacity="1.000000" stroke="none" 
	d="
M210.551270,218.025360 
	C205.860397,218.271042 200.700043,218.491837 195.265869,218.385315 
	C200.021973,218.038834 205.051880,218.019669 210.551270,218.025360 
z"/>
<path fill="#E9EAE4" opacity="1.000000" stroke="none" 
	d="
M145.724457,166.371735 
	C146.115372,166.795212 146.092590,167.097198 146.032135,167.624420 
	C144.674255,167.451157 143.331070,167.050934 142.044754,166.338806 
	C143.178986,166.101959 144.256363,166.176987 145.724457,166.371735 
z"/>
<path fill="#FCFCFB" opacity="1.000000" stroke="none" 
	d="
M433.059082,159.696732 
	C432.875275,159.989120 432.642700,160.013397 432.062408,160.092529 
	C431.651917,159.833893 431.589111,159.520416 431.765991,158.791336 
	C432.340515,158.726700 432.675415,159.077652 433.059082,159.696732 
z"/>
<path fill="#FCFCFB" opacity="1.000000" stroke="none" 
	d="
M145.027710,217.072235 
	C145.014877,217.520142 144.681931,217.926865 143.792542,218.895691 
	C143.726578,218.648880 144.217072,217.839966 145.027710,217.072235 
z"/>
<path fill="#E9EAE4" opacity="1.000000" stroke="none" 
	d="
M202.333252,166.966675 
	C202.607651,166.752060 203.213699,166.563828 203.906860,166.658386 
	C203.550934,166.958481 203.107910,166.975754 202.333252,166.966675 
z"/>
<path fill="#FCFCFB" opacity="1.000000" stroke="none" 
	d="
M143.927933,224.310501 
	C144.004959,224.358231 144.274277,224.522552 144.795227,224.725006 
	C144.660660,224.778137 144.351776,224.666122 143.927933,224.310501 
z"/>
<path fill="#FCFCFB" opacity="1.000000" stroke="none" 
	d="
M156.666840,224.622162 
	C156.820312,224.263290 157.080475,224.207932 157.735443,224.094849 
	C157.678009,224.333282 157.225784,224.629471 156.666840,224.622162 
z"/>
<path fill="#D8D8CE" opacity="1.000000" stroke="none" 
	d="
M145.724960,161.027618 
	C145.811646,161.315140 145.608490,161.603760 145.115952,161.933472 
	C145.029434,161.659271 145.232285,161.343994 145.724960,161.027618 
z"/>
<path fill="#FCFCFB" opacity="1.000000" stroke="none" 
	d="
M142.090240,222.288651 
	C142.390274,222.226105 142.548447,222.507797 142.765717,223.031982 
	C142.655487,222.991486 142.363342,222.777634 142.090240,222.288651 
z"/>
<path fill="#FCFCFB" opacity="1.000000" stroke="none" 
	d="
M398.738464,158.049255 
	C398.827209,158.403427 398.620056,158.771805 398.049225,159.053146 
	C397.937897,158.665237 398.190247,158.364365 398.738464,158.049255 
z"/>
<path fill="#FCFCFB" opacity="1.000000" stroke="none" 
	d="
M143.492340,218.803223 
	C143.445435,219.254486 143.199066,219.435349 142.530914,219.795929 
	C142.503708,219.494675 142.898285,219.013748 143.492340,218.803223 
z"/>
<path fill="#FAFAF8" opacity="1.000000" stroke="none" 
	d="
M246.704132,159.091995 
	C246.789474,159.391541 246.521484,159.573959 246.024567,159.849335 
	C246.050171,159.721680 246.235229,159.399200 246.704132,159.091995 
z"/>
<path fill="#F6F6F4" opacity="1.000000" stroke="none" 
	d="
M352.139771,218.707123 
	C351.844299,218.891373 351.389099,218.828323 350.949066,218.397003 
	C351.302826,218.172455 351.641479,218.316132 352.139771,218.707123 
z"/>
<path fill="#FCFCFB" opacity="1.000000" stroke="none" 
	d="
M238.279266,167.900208 
	C238.244293,167.661392 238.504044,167.489151 238.959381,167.191681 
	C238.940094,167.334579 238.746429,167.634705 238.279266,167.900208 
z"/>
<path fill="#E9EAE4" opacity="1.000000" stroke="none" 
	d="
M214.750320,218.079895 
	C214.994278,218.148941 214.978683,218.644775 214.966675,218.893188 
	C214.628265,218.966690 214.301865,218.791763 213.988068,218.332581 
	C214.169220,218.035843 214.337799,218.023346 214.750320,218.079895 
z"/>
<path fill="#E9EAE4" opacity="1.000000" stroke="none" 
	d="
M213.143097,217.672760 
	C213.038925,218.033279 212.771606,218.136978 212.104462,218.081390 
	C212.129745,217.753372 212.554840,217.584641 213.143097,217.672760 
z"/>
<path fill="#FCFCFB" opacity="1.000000" stroke="none" 
	d="
M194.131531,217.715546 
	C193.837067,217.894913 193.386063,217.828384 192.953552,217.398514 
	C193.306351,217.179993 193.640671,217.324829 194.131531,217.715546 
z"/>
<path fill="#FCFCFB" opacity="1.000000" stroke="none" 
	d="
M204.870819,167.287384 
	C205.163361,167.108749 205.610779,167.176041 206.042267,167.603668 
	C205.692764,167.820465 205.359238,167.676880 204.870819,167.287384 
z"/>
<path fill="#FCFCFB" opacity="1.000000" stroke="none" 
	d="
M200.265656,167.949280 
	C200.177109,167.612381 200.382217,167.260788 200.942307,166.969452 
	C201.051300,167.331345 200.805313,167.632950 200.265656,167.949280 
z"/>
<path fill="#F6F6F4" opacity="1.000000" stroke="none" 
	d="
M147.720337,160.048798 
	C147.804321,160.366791 147.598038,160.700577 147.048523,160.998535 
	C146.946915,160.663330 147.188492,160.363953 147.720337,160.048798 
z"/>
</svg>