<?xml version="1.0" standalone="yes"?>
<svg xmlns="http://www.w3.org/2000/svg" width="89" height="89">
<path style="fill:#181623; stroke:none;" d="M0 0L0 2L23 1L0 0z"/>
<path style="fill:#E5E3C9 stroke:none;" d="M23 0L23 1L34 1L23 0z"/>
<path style="fill:#ceccb4; stroke:none;" d="M34 0L34 1L38 1L38 2L0 2L0 15L5 18L8 17L10 20L21 16L21 19L22 19L21 13L30 13L32 9L37 12L37 16L31 13L32 15L31 15L27 14L27 18C33.4136 16.6663 46.6855 11.3119 52 16L63 14L61 12L61 11L64 9L64 12L67 11L66 13L69 12L66 8L69 9L71 6L71 1L34 0z"/>
<path style="fill:#e5e3c9; stroke:none;" d="M61 0L62 1L61 0M65 0L65 1L71 1L71 6L69 5L69 9L66 8L69 12L66 13L67 11L66 11L66 17L65 17L64 13L44 14L45 17L42 14L27 18L27 14L32 15L31 13L37 13L37 12L32 9L29 10L30 13L21 13L22 19L20 17L19 17L13 18L10 20L8 17L5 18L0 15L0 89L89 88L89 56L88 56L86 58L87 52L76 50L83 51L84 48L88 53C92.5982 42.0418 88.2655 24.5148 87.1698 13C86.8627 9.77363 88.2781 3.30995 85.3966 1.02778C81.402 -2.13601 69.9412 0 65 0z"/>
<path style="fill:#ceccb4; stroke:none;" d="M86 0L87 1L86 0z"/>
<path style="fill:#181623; stroke:none;" d="M87 0L88 20L89 20L89 0L87 0z"/>
<path style="fill:#E5E3C9 stroke:none;" d="M4 1L4 2L14 2L4 1z"/>
<path style="fill:#ceccb4; stroke:none;" d="M14 1L14 2L22 2L14 1z"/>
<path style="fill:#e5e3c9; stroke:none;" d="M6 2L6 3L38 2L6 2M59 1L60 2L59 1M62 1L65 4L62 1z"/>
<path style="fill:#ceccb4; stroke:none;" d="M75 1L74 5L73 3L72 3L73 6L76 5L75 8L76 9L80 6L85 6L85 2L84 2L83 4C81.6895 2.04227 80.9413 2.99372 81 5L75 1M79 1L80 2L79 1z"/>
<path style="fill:#E5E3C9 stroke:none;" d="M80 1L79 4L82 2L80 1z"/>
<path style="fill:#e5e3c9; stroke:none;" d="M57 2L60 7L57 2z"/>
<path style="fill:#E5E3C9 stroke:none;" d="M61 2L61 5L62 5L61 2M70 2L71 3L70 2M76 2L75 4L76 2M59.3333 3.66666L59.6667 4.33334L59.3333 3.66666M66 3L67 4L66 3z"/>
<path style="fill:#e5e3c9; stroke:none;" d="M67 3L67 5L69 5L69 3L67 3M76.6667 4.33334L77.3333 4.66666L76.6667 4.33334M79.6667 4.33334L80.3333 4.66666L79.6667 4.33334M82 4L83 5L82 4z"/>
<path style="fill:#E5E3C9 stroke:none;" d="M87 4L87 8L88 8L87 4z"/>
<path style="fill:#e5e3c9; stroke:none;" d="M61 5L62 6L61 5M63 5L64 6L63 5M65.6667 5.33334L66.3333 5.66666L65.6667 5.33334M78 5L79 6L78 5M34 7L35 8L34 7M61 7L62 8L61 7z"/>
<path style="fill:#ceccb4; stroke:none;" d="M73 7L74 8L73 7M82.3333 7.66666L82.6667 8.33334L82.3333 7.66666z"/>
<path style="fill:#e5e3c9; stroke:none;" d="M64 8L65 9L64 8z"/>
<path style="fill:#8d4752; stroke:none;" d="M87.3333 8.66666L87.6667 9.33334L87.3333 8.66666z"/>
<path style="fill:#e5e3c9; stroke:none;" d="M34 9L36 11L34 9M56 9L55 11L56 9M61 12L65 10L61 12z"/>
<path style="fill:#ceccb4; stroke:none;" d="M71.6667 9.33334L72.3333 9.66666L71.6667 9.33334M74 9L75 10L74 9z"/>
<path style="fill:#e5e3c9; stroke:none;" d="M43 10L45 12L45 10L43 10M48.6667 10.3333L49.3333 10.6667L48.6667 10.3333M60 10L61 11L60 10z"/>
<path style="fill:#ceccb4; stroke:none;" d="M87 10L87 16L88 16L87 10z"/>
<path style="fill:#e5e3c9; stroke:none;" d="M39 13L42 11L39 13M52 11L49 12L49 13L53 12L52 11M57.6667 11.3333L58.3333 11.6667L57.6667 11.3333z"/>
<path style="fill:#E5E3C9 stroke:none;" d="M63 11L63 13L65 13L63 11z"/>
<path style="fill:#e5e3c9; stroke:none;" d="M20 12L21 13L20 12z"/>
<path style="fill:#E5E3C9 stroke:none;" d="M43.6667 12.3333L44.3333 12.6667L43.6667 12.3333z"/>
<path style="fill:#e5e3c9; stroke:none;" d="M46.3333 12.6667L46.6667 13.3333L46.3333 12.6667z"/>
<path style="fill:#E5E3C9 stroke:none;" d="M60.3333 12.6667L60.6667 13.3333L60.3333 12.6667z"/>
<path style="fill:#ceccb4; stroke:none;" d="M73 12L74 13L73 12z"/>
<path style="fill:#e5e3c9; stroke:none;" d="M9 13L9 14L16 16L16 15L9 13M37 13L37 15L39 15L37 13z"/>
<path style="fill:#E5E3C9 stroke:none;" d="M48 13L52 15L52 14L48 13z"/>
<path style="fill:#ceccb4; stroke:none;" d="M64 13L65 17L66 17L64 13z"/>
<path style="fill:#e5e3c9; stroke:none;" d="M6.66667 14.3333L7.33333 14.6667L6.66667 14.3333M17 17L21 15L17 17z"/>
<path style="fill:#E5E3C9 stroke:none;" d="M34 14L34 16L36 16L36 14L34 14M42 14L44 16L44 14L42 14M7 15L9 17L9 15L7 15M10 15L11 16L10 15M21 15L22 16L21 15z"/>
<path style="fill:#ceccb4; stroke:none;" d="M24 15L25 16L24 15z"/>
<path style="fill:#E5E3C9 stroke:none;" d="M27.3333 15.6667L27.6667 16.3333L27.3333 15.6667z"/>
<path style="fill:#e5e3c9; stroke:none;" d="M36 15L37 16L36 15z"/>
<path style="fill:#ceccb4; stroke:none;" d="M42 15L43 16L42 15M44 15L43 17L45 17L44 15M49.6667 15.3333L50.3333 15.6667L49.6667 15.3333z"/>
<path style="fill:#e5e3c9; stroke:none;" d="M9 16L10 17L9 16z"/>
<path style="fill:#E5E3C9 stroke:none;" d="M15 16L14 19L15 16M20.3333 16.6667L20.6667 17.3333L20.3333 16.6667z"/>
<path style="fill:#ceccb4; stroke:none;" d="M46 16L47 17L46 16M58.6667 16.3333L59.3333 16.6667L58.6667 16.3333M55 17L57 20L51 20C53.6156 24.0274 57.9704 23.1924 61 20C64.6558 22.4338 66.5857 20.8509 68 17L63 20L63 18L55 17M81 17L79 18L76 20L76 19L78 19L78 18C74.8768 18.6832 75.4999 20.0872 76 23L83 20L81 17z"/>
<path style="fill:#E5E3C9 stroke:none;" d="M11.3333 18.6667L11.6667 19.3333L11.3333 18.6667z"/>
<path style="fill:#ceccb4; stroke:none;" d="M47.6667 19.3333L48.3333 19.6667L47.6667 19.3333z"/>
<path style="fill:#E5E3C9 stroke:none;" d="M67.3333 19.6667L67.6667 20.3333L67.3333 19.6667M76 19L76 20L79 20L76 19M81.3333 19.6667L81.6667 20.3333L81.3333 19.6667z"/>
<path style="fill:#ceccb4; stroke:none;" d="M12 20L13 21L12 20z"/>
<path style="fill:#E5E3C9 stroke:none;" d="M64 20L65 21L64 20z"/>
<path style="fill:#ceccb4; stroke:none;" d="M68 20L69 21L68 20M70 20L71 21L70 20z"/>
<path style="fill:#E5E3C9 stroke:none;" d="M88 20L88 23L89 23L88 20z"/>
<path style="fill:#ceccb4; stroke:none;" d="M38 21L37 25L46 22L46 25L47 25L47 21L38 21z"/>
<path style="fill:#E5E3C9 stroke:none;" d="M54 21L55 22L54 21z"/>
<path style="fill:#ceccb4; stroke:none;" d="M83 21L84 22L83 21M9 22L9 28L19 28L20 25L25 27L25 26L22 26L22 22L16 23L13 26L13 23L9 22z"/>
<path style="fill:#E5E3C9 stroke:none;" d="M41.3333 22.6667L41.6667 23.3333L41.3333 22.6667M45 22L44 24L46 24L45 22M11 23L12 24L11 23M12 25L15 23L12 25z"/>
<path style="fill:#ceccb4; stroke:none;" d="M23.6667 23.3333L24.3333 23.6667L23.6667 23.3333M29 24L30 27L32 24L35 24L34 26L35 26L36 26L36 24L29 24z"/>
<path style="fill:#E5E3C9 stroke:none;" d="M38.6667 23.3333L39.3333 23.6667L38.6667 23.3333z"/>
<path style="fill:#8d4752; stroke:none;" d="M88 23L88 26L89 26L88 23z"/>
<path style="fill:#e5e3c9; stroke:none;" d="M10 24L11 25L10 24z"/>
<path style="fill:#E5E3C9 stroke:none;" d="M17 26L18 27L20 24L17 26M23 24L22 26L24 26L23 24M32 24L33 25L32 24M34 24L35 25L34 24z"/>
<path style="fill:#ceccb4; stroke:none;" d="M7 25L8 26L7 25z"/>
<path style="fill:#e5e3c9; stroke:none;" d="M14 25L15 26L14 25z"/>
<path style="fill:#E5E3C9 stroke:none;" d="M9 26L10 27L9 26z"/>
<path style="fill:#ceccb4; stroke:none;" d="M62 31L71 28L62 31M52 29L48 30L49 34L56 30L52 29z"/>
<path style="fill:#E5E3C9 stroke:none;" d="M64 29L63 31L65 31L64 29M66.3333 29.6667L66.6667 30.3333L66.3333 29.6667M70 29L71 30L70 29z"/>
<path style="fill:#ceccb4; stroke:none;" d="M72 29L72 31L74 29L72 29M40 30L38 31L39 34L42 38C45.0472 37.3847 47.0079 34.8767 43 34L45 31L40 30z"/>
<path style="fill:#E5E3C9 stroke:none;" d="M55 30L54 32L56 32L55 30z"/>
<path style="fill:#e5e3c9; stroke:none;" d="M65 30L66 31L65 30z"/>
<path style="fill:#ceccb4; stroke:none;" d="M10 31L11 32L10 31M28 31L28 33L30 33L30 31L28 31M56 31L55 33L57 33L56 31M64.6667 31.3333L65.3333 31.6667L64.6667 31.3333M8 32L9 33L8 32z"/>
<path style="fill:#E5E3C9 stroke:none;" d="M9.66667 32.3333L10.3333 32.6667L9.66667 32.3333z"/>
<path style="fill:#ceccb4; stroke:none;" d="M18 32L18 33L21 36L22 36L23 32L18 32z"/>
<path style="fill:#E5E3C9 stroke:none;" d="M21 32L22 33L21 32z"/>
<path style="fill:#ceccb4; stroke:none;" d="M35 32L34 35L35 36L38 35L35 32z"/>
<path style="fill:#E5E3C9 stroke:none;" d="M38 32L39 33L38 32M44 32L43 34L45 34L44 32M49 32L50 33L49 32z"/>
<path style="fill:#ceccb4; stroke:none;" d="M70 32L63 33C65.45 35.6663 70.1141 37.0782 70 32z"/>
<path style="fill:#E5E3C9 stroke:none;" d="M7 33L7 35L9 33L7 33z"/>
<path style="fill:#ceccb4; stroke:none;" d="M10 33L10 34L14 36L10 33z"/>
<path style="fill:#E5E3C9 stroke:none;" d="M15 33L14 36L15 33z"/>
<path style="fill:#ceccb4; stroke:none;" d="M16 33L18 35L16 33z"/>
<path style="fill:#E5E3C9 stroke:none;" d="M17.6667 33.3333L18.3333 33.6667L17.6667 33.3333M20.3333 33.6667L20.6667 34.3333L20.3333 33.6667z"/>
<path style="fill:#ceccb4; stroke:none;" d="M25 33L27 36L27 33L25 33z"/>
<path style="fill:#E5E3C9 stroke:none;" d="M28 33L30 35L28 33M37 33L38 34L37 33z"/>
<path style="fill:#ceccb4; stroke:none;" d="M6 34L7 35L6 34M8 34L7 37L8 34z"/>
<path style="fill:#E5E3C9 stroke:none;" d="M10.3333 34.6667L10.6667 35.3333L10.3333 34.6667z"/>
<path style="fill:#ceccb4; stroke:none;" d="M28 34L29 35L28 34z"/>
<path style="fill:#E5E3C9 stroke:none;" d="M63 34L64 35L63 34z"/>
<path style="fill:#ceccb4; stroke:none;" d="M29 35L30 36L29 35z"/>
<path style="fill:#e5e3c9; stroke:none;" d="M43.3333 35.6667L43.6667 36.3333L43.3333 35.6667z"/>
<path style="fill:#ceccb4; stroke:none;" d="M15 36L16 37L15 36M64 38L63 43L71 42L69 39L68 39L64 41L64 40L66 39L64 38M73 38L72 40L74 40L73 38M49 39L46 42L46 43L58 41L54 42L55 39L49 39M40 40L38 44L39 44L40 44L40 41L43 43L40 40M43 40L44 43L47 41L47 40L43 40z"/>
<path style="fill:#e5e3c9; stroke:none;" d="M64 40L65 41L64 40z"/>
<path style="fill:#E5E3C9 stroke:none;" d="M65 40L66 41L65 40M68 40L69 41L68 40M71 42L74 42L72 40L71 42z"/>
<path style="fill:#ceccb4; stroke:none;" d="M26 42L25 43L26 49L27 49L29 44L28 46L36 41L26 42z"/>
<path style="fill:#E5E3C9 stroke:none;" d="M40 41L41 42L40 41M42.6667 41.3333L43.3333 41.6667L42.6667 41.3333M45 43L48 42L45 43M50 41L50 44L51 44L50 41M52 41L53 42L52 41z"/>
<path style="fill:#ceccb4; stroke:none;" d="M74 41L75 42L74 41M14 42L9 45L9 46L14 47L17 45L14 42M17 42L18 45L20 46L21 46L17 42z"/>
<path style="fill:#E5E3C9 stroke:none;" d="M39 42L40 43L39 42z"/>
<path style="fill:#ceccb4; stroke:none;" d="M7 43L7 46L8 46L7 43z"/>
<path style="fill:#E5E3C9 stroke:none;" d="M17.3333 43.6667L17.6667 44.3333L17.3333 43.6667z"/>
<path style="fill:#ceccb4; stroke:none;" d="M23 43L25 46L23 43z"/>
<path style="fill:#E5E3C9 stroke:none;" d="M26 43L27 44L26 43z"/>
<path style="fill:#ceccb4; stroke:none;" d="M49 43L49 46L51 45L51 44L49 43z"/>
<path style="fill:#E5E3C9 stroke:none;" d="M15 44L14 46L16 46L15 44M19 44L20 45L19 44M24.6667 44.3333L25.3333 44.6667L24.6667 44.3333M28 44L29 45L28 44M10.3333 45.6667L10.6667 46.3333L10.3333 45.6667M7.66667 46.3333L8.33333 46.6667L7.66667 46.3333z"/>
<path style="fill:#ceccb4; stroke:none;" d="M7.66667 47.3333L8.33333 47.6667L7.66667 47.3333M75 47L76 48L75 47M84 48L81 51L81 52L88 55L85 54L88 58L88 50L84 48M58 53L66 50L67 50L68 50L68 52C71.2429 51.6853 74.4121 52.6842 75 49L73 51C68.2849 49.0648 61.8325 49.4608 58 53M76 50C78.0272 52.3014 79.3828 51.2598 81 49L76 50z"/>
<path style="fill:#E5E3C9 stroke:none;" d="M84 49L86 51L84 49z"/>
<path style="fill:#ceccb4; stroke:none;" d="M40 50L39 52L40 50M47 50L49 55L50 55L47 50z"/>
<path style="fill:#E5E3C9 stroke:none;" d="M48 50L48 51L50 54L51 54L48 50z"/>
<path style="fill:#ceccb4; stroke:none;" d="M50 50L51 51L50 50z"/>
<path style="fill:#E5E3C9 stroke:none;" d="M66 50L66 52L68 52L68 50L66 50M80 50L80 52L82 50L80 50z"/>
<path style="fill:#ceccb4; stroke:none;" d="M36 51L36 53L38 51L36 51z"/>
<path style="fill:#E5E3C9 stroke:none;" d="M40 51L41 52L40 51z"/>
<path style="fill:#e5e3c9; stroke:none;" d="M49 51L50 52L49 51z"/>
<path style="fill:#ceccb4; stroke:none;" d="M51 54L55 51L51 54z"/>
<path style="fill:#E5E3C9 stroke:none;" d="M53 51L54 52L53 51M63 51L64 52L63 51M70.6667 51.3333L71.3333 51.6667L70.6667 51.3333M87 51L88 52L87 51z"/>
<path style="fill:#ceccb4; stroke:none;" d="M16 52L17 53L16 52M28 52L26 55L28 52M34 52L35 53L34 52z"/>
<path style="fill:#E5E3C9 stroke:none;" d="M37 52L38 55L37 52M39 52L40 53L39 52M48 52L49 53L48 52M52 52L53 53L52 52M59 52L60 53L59 52z"/>
<path style="fill:#ceccb4; stroke:none;" d="M20 53L19 57L22 59L20 53M25 53L26 54L25 53z"/>
<path style="fill:#E5E3C9 stroke:none;" d="M28 53L27 56L28 56L28 53z"/>
<path style="fill:#ceccb4; stroke:none;" d="M28 56L33 55C30.9891 52.9534 29.8401 54.107 28 56z"/>
<path style="fill:#E5E3C9 stroke:none;" d="M33 53L33 55L35 53L33 53z"/>
<path style="fill:#ceccb4; stroke:none;" d="M39 53L39 55L41 55L39 53M42 53L43 54L42 53M47 53L48 54L47 53z"/>
<path style="fill:#181623; stroke:none;" d="M48 53L49 54L48 53z"/>
<path style="fill:#E5E3C9 stroke:none;" d="M87.3333 53.6667L87.6667 54.3333L87.3333 53.6667z"/>
<path style="fill:#ceccb4; stroke:none;" d="M8 54L10 58L8 54M10 54L11 55L10 54M13 54L11 58L18 57L13 54M23 54L23 56L25 56L23 54z"/>
<path style="fill:#E5E3C9 stroke:none;" d="M24 54L25 55L24 54z"/>
<path style="fill:#e5e3c9; stroke:none;" d="M28 54L29 55L28 54z"/>
<path style="fill:#ceccb4; stroke:none;" d="M34 56L37 55L34 56z"/>
<path style="fill:#E5E3C9 stroke:none;" d="M48 54L49 55L48 54M10.3333 55.6667L10.6667 56.3333L10.3333 55.6667M12 55L13 56L12 55M19 55L20 56L19 55z"/>
<path style="fill:#e5e3c9; stroke:none;" d="M86 55L87 56L86 55z"/>
<path style="fill:#E5E3C9 stroke:none;" d="M87 56L88 57L87 56z"/>
<path style="fill:#ceccb4; stroke:none;" d="M56 57L56 59L58 57L56 57z"/>
<path style="fill:#E5E3C9 stroke:none;" d="M57 58L58 59L57 58z"/>
<path style="fill:#ceccb4; stroke:none;" d="M69 58L66 60L66 62L67 63L76 60L77 60L79 62L79 67L80 67C81.0644 59.498 74.1312 60.2411 69 58M51 59L52 60L51 59M56 60L56 63L62 62C63.381 58.4165 58.3008 59.8542 56 60z"/>
<path style="fill:#E5E3C9 stroke:none;" d="M79 59L80 63L81 63L79 59z"/>
<path style="fill:#ceccb4; stroke:none;" d="M41 60L44 63L41 60z"/>
<path style="fill:#E5E3C9 stroke:none;" d="M49 62L52 60L49 62M61 60L62 61L61 60M69 60L70 61L69 60M72 60L73 61L72 60M76 60L77 61L76 60z"/>
<path style="fill:#ceccb4; stroke:none;" d="M80 60L82 62L82 60L80 60M35 61L37 66L35 61M45.6667 61.3333L46.3333 61.6667L45.6667 61.3333z"/>
<path style="fill:#E5E3C9 stroke:none;" d="M56 61L57 62L56 61M59 61L60 62L59 61z"/>
<path style="fill:#e5e3c9; stroke:none;" d="M79 61L80 62L79 61z"/>
<path style="fill:#E5E3C9 stroke:none;" d="M43 63L43 64L47 63L43 63M48 62L49 63L48 62z"/>
<path style="fill:#ceccb4; stroke:none;" d="M50 62L50 63L53 63L50 62M9 64L12 71L13 71L13 67L20 68L19 64L9 64M27 63L26 67L30 66L27 63M30 63L30 64L30 65L33 65L33 64L30 63z"/>
<path style="fill:#E5E3C9 stroke:none;" d="M41.3333 63.6667L41.6667 64.3333L41.3333 63.6667z"/>
<path style="fill:#ceccb4; stroke:none;" d="M46.6667 63.3333L47.3333 63.6667L46.6667 63.3333z"/>
<path style="fill:#E5E3C9 stroke:none;" d="M27 64L28 65L27 64M31 64L32 65L31 64M32 66L35 64L32 66z"/>
<path style="fill:#ceccb4; stroke:none;" d="M44 64L45 65L44 64z"/>
<path style="fill:#e5e3c9; stroke:none;" d="M79 64L80 65L79 64z"/>
<path style="fill:#E5E3C9 stroke:none;" d="M11 65L12 66L11 65z"/>
<path style="fill:#e5e3c9; stroke:none;" d="M13 65L14 66L13 65z"/>
<path style="fill:#E5E3C9 stroke:none;" d="M17 65L18 66L17 65z"/>
<path style="fill:#ceccb4; stroke:none;" d="M63 65C64.4579 69.1317 68.3924 69.4102 71 66L66 68L63 65M72 65L72 69L73 69L72 65M21 66L22 67L21 66z"/>
<path style="fill:#E5E3C9 stroke:none;" d="M71.3333 66.6667L71.6667 67.3333L71.3333 66.6667z"/>
<path style="fill:#ceccb4; stroke:none;" d="M54 67L52 70L55 71L54 67M56 67L56 70L60 70L60 69L56 67z"/>
<path style="fill:#E5E3C9 stroke:none;" d="M66 67L67 68L66 67M56 68L57 69L56 68M64 68L65 69L64 68z"/>
<path style="fill:#ceccb4; stroke:none;" d="M74.6667 68.3333L75.3333 68.6667L74.6667 68.3333M37 69L36 72L34 70L33 71L39 74L40 74L37 72L37 69M44 70L44 71L50 72L49 69L44 70z"/>
<path style="fill:#E5E3C9 stroke:none;" d="M58 69L59 70L58 69M37 70L38 71L37 70M45 70L46 71L45 70M48 70L49 71L48 70M50.6667 70.3333L51.3333 70.6667L50.6667 70.3333z"/>
<path style="fill:#ceccb4; stroke:none;" d="M29 71L28 74L26 72L25 73L26 76L30 75L29 71z"/>
<path style="fill:#e5e3c9; stroke:none;" d="M37 71L38 72L37 71z"/>
<path style="fill:#E5E3C9 stroke:none;" d="M44 71L45 72L44 71M46 71L47 72L46 71z"/>
<path style="fill:#ceccb4; stroke:none;" d="M51 71L52 72L51 71M86 71L87 72L86 71M31 72L31 74L33 74L31 72z"/>
<path style="fill:#E5E3C9 stroke:none;" d="M34.3333 72.6667L34.6667 73.3333L34.3333 72.6667M38 72L39 73L38 72z"/>
<path style="fill:#ceccb4; stroke:none;" d="M64.3333 72.6667L64.6667 73.3333L64.3333 72.6667z"/>
<path style="fill:#E5E3C9 stroke:none;" d="M85 72L85 76L87 72L85 72M13 73L14 74L13 73z"/>
<path style="fill:#ceccb4; stroke:none;" d="M12 74L13 79L14 79L15 79L18 77L15 73L12 74z"/>
<path style="fill:#E5E3C9 stroke:none;" d="M29 73L30 74L29 73z"/>
<path style="fill:#ceccb4; stroke:none;" d="M56 76L62 75L60 74L56 76z"/>
<path style="fill:#E5E3C9 stroke:none;" d="M63 73L65 76L63 73z"/>
<path style="fill:#ceccb4; stroke:none;" d="M67 73L68 74L67 73z"/>
<path style="fill:#E5E3C9 stroke:none;" d="M26 74L27 75L26 74M58 74L59 75L58 74z"/>
<path style="fill:#ceccb4; stroke:none;" d="M62 74L63 75L62 74z"/>
<path style="fill:#181623; stroke:none;" d="M66 74L67 75L66 74z"/>
<path style="fill:#E5E3C9 stroke:none;" d="M67 74L66 76L67 74z"/>
<path style="fill:#ceccb4; stroke:none;" d="M76 75L80 78L80 77L77 76L79 75L76 75M82 74L83 75L82 74z"/>
<path style="fill:#E5E3C9 stroke:none;" d="M12 75L13 76L12 75z"/>
<path style="fill:#e5e3c9; stroke:none;" d="M14 75L15 76L14 75z"/>
<path style="fill:#ceccb4; stroke:none;" d="M19 75L20 76L19 75M49 78L50 78L53 78L52 75L49 78M53 75L54 76L53 75z"/>
<path style="fill:#E5E3C9 stroke:none;" d="M57 75L58 76L57 75M60 75L61 76L60 75z"/>
<path style="fill:#ceccb4; stroke:none;" d="M65 75L66 76L65 75z"/>
<path style="fill:#e5e3c9; stroke:none;" d="M67 75L68 76L67 75z"/>
<path style="fill:#ceccb4; stroke:none;" d="M66 77L67 78L69 75L66 77M71.3333 75.6667L71.6667 76.3333L71.3333 75.6667z"/>
<path style="fill:#E5E3C9 stroke:none;" d="M77 75L78 76L77 75M79 76L79 77L84 77L79 76z"/>
<path style="fill:#ceccb4; stroke:none;" d="M84 75L85 76L84 75z"/>
<path style="fill:#E5E3C9 stroke:none;" d="M13 76L14 77L13 76z"/>
<path style="fill:#ceccb4; stroke:none;" d="M36 76L36 80L40 77L38 79L37 79L36 76z"/>
<path style="fill:#E5E3C9 stroke:none;" d="M39 76L40 77L39 76M43 76L42 79L43 76M52 76L53 77L52 76M55 76L56 77L55 76z"/>
<path style="fill:#ceccb4; stroke:none;" d="M64 76L65 77L64 76z"/>
<path style="fill:#E5E3C9 stroke:none;" d="M68 76L69 77L68 76z"/>
<path style="fill:#181623; stroke:none;" d="M76 76L77 77L76 76z"/>
<path style="fill:#ceccb4; stroke:none;" d="M82 76L83 77L82 76z"/>
<path style="fill:#E5E3C9 stroke:none;" d="M14 77L15 78L14 77z"/>
<path style="fill:#ceccb4; stroke:none;" d="M41 77L42 78L41 77M46 77L46 79L48 79L46 77z"/>
<path style="fill:#E5E3C9 stroke:none;" d="M47 77L48 78L47 77z"/>
<path style="fill:#ceccb4; stroke:none;" d="M55 77L56 78L55 77z"/>
<path style="fill:#E5E3C9 stroke:none;" d="M76.6667 77.3333L77.3333 77.6667L76.6667 77.3333z"/>
<path style="fill:#ceccb4; stroke:none;" d="M83 77L84 78L83 77z"/>
<path style="fill:#E5E3C9 stroke:none;" d="M37 78L38 79L37 78z"/>
<path style="fill:#ceccb4; stroke:none;" d="M76 78L77 79L76 78M43.6667 79.3333L44.3333 79.6667L43.6667 79.3333M61 88L62 89L61 88z"/>
<path style="fill:#8d4752; stroke:none;" d="M62 88L62 89L66 89L62 88z"/>
<path style="fill:#ceccb4; stroke:none;" d="M66 88L67 89L66 88z"/>
<path style="fill:#8d4752; stroke:none;" d="M67 88L67 89L71 89L67 88z"/>
<path style="fill:#E5E3C9 stroke:none;" d="M71 88L71 89L74 89L71 88z"/>
<path style="fill:#8d4752; stroke:none;" d="M74 88L75 89L74 88z"/>
<path style="fill:#181623; stroke:none;" d="M75 88L76 89L75 88z"/>
<path style="fill:#8d4752; stroke:none;" d="M76 88L77 89L76 88z"/>
<path style="fill:#E5E3C9 stroke:none;" d="M77 88L77 89L80 89L77 88z"/>
<path style="fill:#8d4752; stroke:none;" d="M80.6667 88.3333L81.3333 88.6667L80.6667 88.3333z"/>
<path style="fill:#181623; stroke:none;" d="M82 88L83 89L82 88z"/>
<path style="fill:#E5E3C9 stroke:none;" d="M83.6667 88.3333L84.3333 88.6667L83.6667 88.3333z"/>
<path style="fill:#181623; stroke:none;" d="M85 88L86 89L85 88z"/>
<path style="fill:#8d4752; stroke:none;" d="M86 88L87 89L86 88z"/>
<path style="fill:#181623; stroke:none;" d="M87 88L88 89L87 88z"/>
<path style="fill:#8d4752; stroke:none;" d="M88 88L89 89L88 88z"/>
</svg>
